<?xml version="1.0" encoding="UTF-8" standalone="no"?>
<svg width="170px" height="50px" viewBox="0 0 170 50" version="1.1" xmlns="http://www.w3.org/2000/svg" xmlns:xlink="http://www.w3.org/1999/xlink" xmlns:sketch="http://www.bohemiancoding.com/sketch/ns">
    <!-- Generator: Sketch 3.3.3 (12081) - http://www.bohemiancoding.com/sketch -->
    <title>Slice 1</title>
    <desc>Created with Sketch.</desc>
    <defs></defs>
    <g id="Page-1" stroke="none" stroke-width="1" fill="none" fill-rule="evenodd" sketch:type="MSPage">
        <g id="bird" sketch:type="MSLayerGroup" transform="translate(71.000000, 11.000000)">
            <g id="Page-1" sketch:type="MSShapeGroup">
                <g id="bird">
                    <g id="Page-1">
                        <g id="Group">
                            <path d="M26.86,15.188 C26.86,15.031 27.989,12.977 27.989,12.977 L25.952,13.02 C25.038,11.666 23.321,10.992 21.67,11.474 C19.774,12.027 18.63,13.904 18.942,15.804 L18.94,15.806 C18.004,15.939 16.753,14.78 15.174,12.582 C13.916,15.435 14.776,17.936 15.632,18.719 C14.444,19.212 11.875,19.183 10.682,18.923 C13.649,22.411 16.414,22.699 19.084,22.503 C20.068,22.707 21.113,22.685 22.146,22.384 C25.503,21.404 27.809,18.823 26.855,15.464 C26.86,15.366 26.86,15.273 26.86,15.188 L26.86,15.188 L26.86,15.188 Z M24.265,14.977 C23.703,15.143 23.113,14.818 22.951,14.256 C22.785,13.694 23.109,13.105 23.672,12.942 C24.234,12.777 24.822,13.1 24.986,13.662 C25.15,14.224 24.825,14.813 24.265,14.977 L24.265,14.977 L24.265,14.977 Z" id="Shape" fill="#958C8C"></path>
                            <path d="M23.888,13.429 L23.888,13.429 C23.921,13.463 23.949,13.502 23.963,13.55 C24.008,13.706 23.919,13.869 23.763,13.915 C23.673,13.941 23.583,13.918 23.513,13.868 C23.503,13.939 23.507,14.014 23.529,14.087 C23.611,14.368 23.904,14.529 24.185,14.447 C24.466,14.364 24.628,14.071 24.546,13.789 C24.464,13.509 24.169,13.347 23.888,13.429 L23.888,13.429 L23.888,13.429 Z" id="Shape" fill="#706C6C"></path>
                            <path d="M10.722,9.495 L19.397,9.602 L19.422,9.602 C21.247,9.595 22.732,8.104 22.732,6.28 C22.732,4.447 21.242,2.957 19.41,2.957 C19.23,2.957 19.053,2.972 18.88,3 L18.752,3.021 L18.734,2.893 C18.519,1.243 17.103,0 15.438,0 C13.78,0 12.364,1.238 12.144,2.88 L12.127,3.005 L12.002,2.987 C11.857,2.966 11.706,2.956 11.553,2.956 C9.721,2.956 8.23,4.447 8.23,6.279 C8.23,7.794 9.255,9.116 10.722,9.495 L10.722,9.495 L10.722,9.495 Z M11.554,3.691 C11.829,3.691 12.105,3.736 12.374,3.826 L12.886,3.997 L12.855,3.401 C12.853,3.376 12.851,3.35 12.851,3.322 C12.851,1.895 14.011,0.734 15.439,0.734 C16.867,0.734 18.027,1.895 18.027,3.322 C18.027,3.357 18.025,3.39 18.023,3.424 L17.984,4.049 L18.512,3.853 C18.805,3.745 19.107,3.689 19.408,3.689 C20.836,3.689 21.996,4.85 21.996,6.277 C21.996,7.697 20.842,8.858 19.42,8.865 L11.42,8.865 L11.229,8.842 C9.938,8.682 8.966,7.58 8.966,6.279 C8.966,4.852 10.127,3.691 11.554,3.691 L11.554,3.691 L11.554,3.691 Z" id="Shape" fill="#958C8C"></path>
                            <path d="M10.474,22.845 C10.318,22.845 10.161,22.858 10.009,22.883 L9.898,22.903 L9.882,22.79 C9.694,21.345 8.453,20.256 6.994,20.256 C5.542,20.256 4.301,21.341 4.108,22.78 L4.093,22.889 L3.984,22.872 C3.856,22.853 3.724,22.845 3.59,22.845 C1.985,22.845 0.679,24.151 0.679,25.757 C0.679,27.084 1.576,28.243 2.861,28.574 L10.465,28.668 L10.486,28.668 C12.086,28.662 13.386,27.356 13.386,25.757 C13.386,24.15 12.079,22.845 10.474,22.845 L10.474,22.845 L10.474,22.845 Z M10.484,28.025 L3.472,28.025 L3.306,28.004 C2.175,27.862 1.324,26.896 1.324,25.756 C1.324,24.505 2.342,23.487 3.592,23.487 C3.833,23.487 4.074,23.526 4.311,23.606 L4.759,23.755 L4.73,23.234 C4.728,23.213 4.727,23.189 4.727,23.166 C4.727,21.916 5.745,20.898 6.995,20.898 C8.246,20.898 9.264,21.916 9.264,23.166 C9.264,23.195 9.262,23.227 9.26,23.255 L9.225,23.803 L9.69,23.632 C9.946,23.537 10.211,23.488 10.475,23.488 C11.725,23.488 12.743,24.506 12.743,25.757 C12.742,27.002 11.729,28.02 10.484,28.025 L10.484,28.025 L10.484,28.025 Z" id="Shape" fill="#958C8C"></path>
                        </g>
                    </g>
                </g>
            </g>
        </g>
    </g>
</svg>